<?xml version="1.0" encoding="utf-8"?>
<svg version="1.1" id="Layer_1" xmlns="http://www.w3.org/2000/svg" xmlns:xlink="http://www.w3.org/1999/xlink" x="0px" y="0px"
	 viewBox="0 0 2242.066 1634.986" enable-background="new 0 0 2242.066 1634.986" xml:space="preserve">
<path d="M2016.983,18.384c14.116-3.699,27.324,4.77,37.757,13.321c4.705,5.111,0.227,13.159,4.332,18.529
	c2.823,3.845,5.37,7.902,7.74,12.056c5.5,10.303,19.795,8.437,26.853,17.183c-2.401,2.596-4.819,5.16-7.318,7.626
	c6.003,10.968,13.646,22.196,13.37,35.209c0.238,28.117-0.551,58.2-25.669,61.884c4.949,6.133,13.143,7.269,20.265,9.362
	c36.024,8.657,42.487,21.365,57.779,23.008c6.494,0.677,50.533,7.553,49.747,22.764c0.779,53.901-2.195,36.648-1.736,84.291
	c20.221,3.788,18.645,11.615,17.215,35.745c-5.443,32.867,0.462,87.941-34.414,91.495c-80.711,9.393-250.677,6.28-346.495-18.27
	c-16.344-6.219-18.097-2.35-19.681-60.31c0.93-37.777-4.596-57.051,12.315-62.257c3.456-2.028,9.281-1.947,10.206-6.685
	c0.217-1.623,3.454-54.931,7.577-80.997c11.485-18.371,51.284-10.888,62.257-18.838c15.706-11.001,35.566-12.364,54.063-14.084
	c-4.511-6.927,1.657-9.057-36.524-9.476c-79.754,1.906-53.484,5.383-84.843,4.965c-5.484,12.252-1.911,14.206-28.687,16.485
	c-4.705,2.629-7.983,7.675-13.321,9.102c-9.541,1.233-19.195-0.065-28.751,0.763c-5.014,0.892-7.983,5.419-11.423,8.681
	c-14.945,15.675-22.979,7.276-30.504,3.245c1.119,6.231,3.05,12.494,2.239,18.919c-1.525,10.498-9.362,18.822-11.536,29.027
	c2.223,5.549,8.729,7.999,13.24,11.569c-0.13,3.342-0.227,6.685-0.211,10.044c10.887,5.76,18.675,16.372,22.245,28.038
	c4.348,18.185-13.055,32.841-10.968,41.57c3.018,14.765,9.735,28.849,9.995,44.117c7.612,155.214-224.719,185.152-254.756,22.391
	c-1.184-7.155,0.665-14.798-2.304-21.612c-5.516-11.579-9.572-10.684-53.187-9.459c-0.178,13.678,0.26,27.372-0.227,41.05
	c-0.438,8.437-11.471,7.788-15.138,13.986c-4.535,22.729,2.656,15.522-12.445,36.507c22.155,13.36,21.394,21.793,12.429,39.493
	c0.001,0,82.424,3.78,82.425,3.781c22.19,7.019,57.075,37.911,86.774,43.387c27.584,5.185,61.253,8.429,87.407-1.509
	c24.906-8.682,53.611-27.035,50.818-10.66c-0.037,21.141-39.557,31.822-61.316,37.659c-55.838,14.277-106.449-10.174-150.816-38.519
	c-13.722-8.161-6.873-6.728-58.006-6.669c-9.573,0.243-19.227-0.308-28.638,1.801c0.26,1.395,0.519,2.791,0.811,4.202
	c46.385,15.323,92.501,39.508,110.917,84.486c6.695,15.983,12.303,54.245,12.072,64.577c0.292,5.841-0.99,12.445,2.839,17.442
	c16.355,19.941,28.184,43.241,37.724,67.109c42.119,94.425,109.927,99.374,208.854,131.653c0,0,39.26,19.516,85.232,36.491
	c44.364,16.762,58.99,45.248,95.39,78.839c9.589,8.778,17.313,19.503,27.859,27.243c8.097,6.036,13.889,14.359,20.444,21.888
	c13.292,15.474,10.522,29.595,13.37,37.335c14.617,29.689-2.098-23.216,19.552,72.706c2.888,10.19-1.671,21.596,3.991,31.039
	c13.685,27.29,2.608,36.294,8.632,55.54c8.846,30.154,2.624,12.047,18.513,135.272c0.938,4.764,6.171,41.974,5.906,69.964
	c-20.17,9.561-53.793,7.406-65.908,8.956c-7.452,10.755-5.498,18.097-49.634,23.932c-16.68,2.758-33.652,0.471-50.396,1.704
	c-20.618,7.781-53.936,63.348-407.762,84.161c-1.623-0.084-177.795,14.372-343.915-6.182c-15.093,0.245-66.009-6.39-73.988-6.685
	c-102.863-3.65-146.995-45.507-288.975-62.825c-11.488-2.255-23.251-1.931-34.722-4.202c-8.502-1.833-17.248-0.892-25.847-1.574
	c-36.352-4.746-40.18-6.561-49.666-25.912c-17.296-39.179-29.909-126.394-26.772-144.926c0.261-1.624,4.579-50.501,6.052-56.026
	c-4.576,0.682-11.617-1.558-14.1,3.602c-6.183,31.79-15.628,24.706-26.139,32.548c-9.543,17.929-0.178,15.013-29.498,31.234
	c-7.186,3.678-11.002,21.913-27.307,26.545c-4.235,0.746-8.535,0.649-12.802,0.844c-8.315,27.103-22.999,21.686-37.01,22.424
	c-4.301,23.99-22.61,19.205-38.114,26.107c-10.072,7.916-11.993,19.69-41.732,14.327c-16.262,25.421-19.672,15.395-42.786,18.221
	c-11.196,7.585-11.928,20.972-49.26,1.444c-3.991,7.821-8.389,16.42-16.81,20.217c-25.141,5.86-25.971-13.179-34.512-12.575
	c-10.804,9.7-13.411,22.475-35.891,17.653c-11.26-8.632-13.516-23.933-16.225-36.962c-1.395,0.081-2.775,0.195-4.17,0.308
	c1.105,40.216-36.948,58.83-47.167,15.138c-9.823,9.588-27.118,39.813-58.201,4.024c-21.281,16.615-32.601,16.002-49.39-9.557
	c-32.582,1.303-37.202-11.994-43.646-25.133c-1.298-3.342-5.143-4.056-7.967-5.549c-30.955-13.481-16.529-28.142-24.76-37.384
	c-11.934-14.194-9.764-20.121-9.508-38.535c0.828-7.772-6.312-13.451-6.604-21.028c-0.974-9.589,5.16-17.653,8.843-25.977
	c-10.256-21.81-5.481-20.862,7.123-40.807c-1.833-5.76-5.663-11.114-4.965-17.426c0.357-11.179,10.076-18.367,16.972-25.961
	c-7.731-24.967,4.665-32.709,17.978-39.038c-2.921-8.08-5.582-16.956-3.099-25.49c4.478-7.285,13.11-9.8,20.915-11.715
	c-3.74-7.951-7.644-11.434-5.322-29.319c4.186-6.198,11.601-8.762,18.173-11.552c-3.521-5.614-8.632-11.569-6.685-18.692
	c2.142-9.946,12.429-14.23,21.093-17.102c-15.258-24.727-3.339-31.349,12.753-39.882c-3.991-7.545-4.17-16.339-2.937-24.598
	c3.261-5.792,9.946-8.145,15.576-10.985c-3.342-6.571-3.716-14.165-2.385-21.304c2.677-6.815,9.346-10.676,15.706-13.483
	c-13.167-31.893,11.46-29.905,9.881-43.452c-0.065-5.955-0.73-11.958,0.276-17.848c3.132-5.176,8.405-8.47,12.899-12.348
	c-10.419-19.824,3.259-27.796,7.691-35.615c0.974-7.366-1.266-15.09,1.168-22.261c2.174-5.322,7.301-8.486,11.293-12.315
	c-4.798-26.076-8.135-15.952,9.021-39.363c-3.683-26.297-2.393-17.627,9.557-33.262c1.152-8.08-1.136-16.355,0.308-24.452
	c2.353-4.835,7.026-7.967,9.865-12.461c-0.378-11.466-11.913-15.598,9.281-36.605c-2.359-4.335-5.861-2.985-1.833-25.02
	c0.081,5.987-1.833,12.185,0.341,18.01c0.13-4.916-1.006-10.076,1.022-14.798c1.72-5.533,6.377-9.524,8.567-14.749
	c-0.746-6.036-2.661-12.007-2.044-18.189c-0.438-7.821,6.523-12.769,9.768-19.146c-2.32-7.675-4.413-15.641-2.888-23.722
	c2.677-4.997,7.642-8.259,11.666-12.104c-12.518-27.854-1.195-30.218,5.03-41.683c-10.303-32.749,0.744-31.411,6.214-43.857
	c-2.044-9.086-8.113-17.507-6.636-27.194c2.953-6.182,9.378-9.654,15.009-13.078c-15.776-26.334-11.212-45.121,17.816-56.562
	c-8.616-8.145-18.059-18.237-16.761-31.072c-1.41-13.457,21.456-18.74,26.399-20.249c-7.009-6.425-16.469-12.899-16.664-23.413
	c-0.071-14.828-3.488-20.621,21.856-32.337c-30.319-36.658-16.458-39.928-1.931-60.132c-0.755-2.947-16.6-29.409,13.613-55.085
	c18.153-14.45,60.032-18.816,77.915-22.456c3.602-5.257,3.521-12.997,9.395-16.664c12.137-7.658,28.005-2.629,40.255-10.044
	c4.576-4.592,6.036-13.159,12.948-14.895c3.261,2.758,5.825,6.231,9.102,8.989c3.633,0.956,114.882,0.527,116.531,0.519
	c5.208,0.243,10.092-1.801,14.862-3.667c-1.963-3.667-4.024-7.269-6.198-10.806c6.555-7.837,17.329-9.67,24.549-16.485
	c9.562-18.788,0.653-39.144,36.475-46.356c43.27-4.821,38.97,24.565,47.768,38.081c12.194,19.551,21.344,9.443,31.461,21.564
	c-2.693,3.31-6.231,6.182-7.691,10.319c2.353,3.132,4.965,7.642,9.476,7.318c1.624,0.002,132.078,0.291,146.759-1.85
	c2.856-6.75,2.482-15.301,8.405-20.428c7.74-1.347,15.641,0.016,23.446-0.178c5.156-25.457,26.241-14.79,40.45-12.932
	c9.995-6.166,18.708-15.43,30.617-17.88c8.34,2.207,13.938,9.249,19.763,15.106c30.836-31.819,35.163-0.032,41.294,12.364
	c28.493-0.155,26.965,1.643,32.224-3.959c6.685-9.102,4.073-21.953,10.969-30.974c10.265-11.629,260.449-2.15,328.468-7.934
	c8.985-1.332,199.239-7.414,207.394-5.322c11.423,7.387,11.396,28.447,13.824,34.479c6.636,1.022,13.418,0.649,20.136,0.519
	c0.716-7.562-4.682-31.195,25.295-25.344c7.383,6.036,7.934,16.193,8.097,25.003c6.068,0.032,12.137-0.032,18.205-0.178
	c6.36-9.476,9.054-22.261,19.584-28.281c22.905-3.584,24.32,7.1,33.278,19.032c11.293-2.109,22.862-4.77,34.43-2.791
	c4.673,3.034,7.691,7.853,10.952,12.25c15.054,1.334,15.769-1.821,26.545,16.388c129.494,1.682,110.074,1.282,118.949-6.928
	c-2.531-4.316-3.667-9.184-3.472-14.165c6.149-2.758,12.77-4.137,19.13-6.295c6.555-2.288,7.999-9.979,11.179-15.333
	c3.245-5.387,4.381-11.634,4.332-17.864C2000.173,31.349,2005.868,20.559,2016.983,18.384 M345.777,204.945
	c-0.114,1.85-0.178,3.699-0.13,5.549c43.176,2.184,57.92-4.851,68.52,7.983c5.718,6.368,5.72,31.623-12.623,31.348
	c-11.017-0.276-21.596,3.521-32.597,3.31c-6.896-0.032-13.548,1.979-19.925,4.413c10.587,8.175,21.822,1.83,51.921,12.315
	c9.524,2.921,14.976,14.587,11.812,23.835c-3.245,8.027-13.106,9.318-44.003,19.162c11.277,4.121,23.965,5.744,33.717,13.126
	c7.204,9.07,1.395,22.635-6.782,29.076c-11.747,7.399-26.269,7.869-38.698,13.71c12.445,1.801,26.821,3.667,35.339,14.019
	c23.611,38.909-52.353,30.712-76.503,43.062c2.531,2.856,4.851,6.49,8.827,7.431c29.703,7.803,51.673,6.832,59.401,19.357
	c6.771,36.114-39.121,17.871-58.558,25.085c12.331,5.549,25.02,10.822,38.6,12.202c19.099,1.344,16.446,24.951,9.508,28.557
	c-12.98,8.015-28.638,1.996-42.543,0.357c-0.617,2.044-1.249,4.105-1.882,6.166c7.109,1.279,46.339,6.115,42.608,25.831
	c0.746,5.257-4.202,8.389-8.275,10.433c-14.003,6.295-29.693,1.266-44.344,3.878c6.458,5.76,15.495,5.208,23.186,8.08
	c28.186,9.273,28.267,24.202,18.513,30.974c-7.301,5.939-17.053,5.793-25.928,6.474c14.035,9.852,25.651,7.918,23.235,27.048
	c-4.04,9.248-14.944,11.196-23.073,15.301c32.467,19.362,9.621,29.419-2.612,38.6c3.488,2.418,7.691,4.494,9.638,8.518
	c2.427,15.934-2.652,18.138-14.879,25.312c-6.172,2.008,10.329,8.693,8.486,18.335c-0.584,10.433-10.644,16.485-19.471,19.73
	c2.807,3.845,6.798,7.496,6.75,12.64c0.243,4.803,0.568,9.784-0.779,14.473c-4.365,5.727-11.601,7.821-17.556,11.423
	c9.328,8.774,9.17,9.546,8.194,21.044c-2.418,7.383-9.605,11.504-15.804,15.447c3.829,3.845,8.015,8.08,6.669,14.051
	c0.6,10.579-9.719,16.063-16.761,21.872c2.174,7.285,7.431,14.814,4.17,22.618c-2.45,7.058-10.027,9.881-14.441,15.398
	c4.056,11.975,15.293,17.991-11.406,32.272c4.065,18.099,14.099,27.271-11.455,39.168c7.733,25.475,5.926,25.119-15.025,36.913
	c2.255,7.026,7.366,13.711,5.776,21.45c-3.537,7.415-10.79,11.812-16.566,17.28c4.995,26.222-0.461,21.523-12.039,35.079
	c-3.464,19.942,8.067,20.248-13.435,36.069c10.867,21.151-3.972,29.676-9.378,36.15c-2.32,7.496,1.379,15.852-1.898,23.235
	c-2.629,6.717-8.6,11.179-12.591,16.988c-2.709,15.575,6.247,7.253-12.477,35.063c-4.851,6.555-0.211,15.479-4.024,22.44
	c-2.19,4.673-5.906,8.421-8.226,13.029c-0.633,5.792,0.795,11.974-1.931,17.41c-1.59,5.095-6.425,10.19-3.521,15.69
	c3.732,8.048,1.704,16.956,1.833,25.474c-0.114,5.5,3.845,10.66,2.126,16.193c-0.519,3.424-3.18,7.172-0.844,10.482
	c6.654,11.678,2.583,7.161,29.417,19.243c8.681,0.195,18.367-4.495,26.383,0.73c3.375,1.525,6.328,5.468,10.384,4.186
	c9.249-2.515,18.805-6.441,28.508-4.105c4.267,2.482,6.685,6.993,9.476,10.887c21.046-11.786,22.107-20.102,46.389,1.574
	c4.819-5.711,9.021-12.348,15.739-16.031c10.254-2.645,17.394,7.561,25.409,12.088c18.579-31.038,29.283-15.372,38.99-8.307
	c19.441-25.211,21.888-17.699,37.156-16.42c20.947-20.408,14.643-11.098,35.436-13.792c3.505-4.186,5.371-10.044,10.384-12.769
	c6.085-3.391,13.062-0.552,19.373,0.487c6.381-12.202,3.269-18.592,32.159-20.055c3.945-11.872,2.269-18.62,29.092-19.698
	c5.873-20.873,7.684-13.615,27.178-23.089c4.219-4.754,4.933-12.072,10.222-16.047c5.127-3.553,11.26-5.127,16.939-7.529
	c-0.824-26.181,14-22.436,25.734-26.237c3.909-6.399-0.639-23.67,23.689-28.946c6.604,0.746,11.244,6.523,16.079,10.595
	c8.536,9.112,33.343,24.289,44.88,28.021c0.146-5.192-0.892-10.514,0.389-15.593c1.85-2.953,4.657-5.079,7.253-7.318
	c0.653-11.079,8.174-71.306,16.436-102.658c17.323-74.965,21.321-85.865,41.927-114.471c21.6-29.632,49.095-25.457,70.548-47.735
	c-13.711-10.926-10.22-4.505-15.447-39.752c-4.965-6.263-11.91-10.725-16.436-17.394c-10.627-16.22-36.19-20.289-67.709-43.76
	c-50.274-35.544-87.689-101.277-101.588-150.897c-9.057-31.87-8.678-83.909-8.794-85.589c-2.888-6.133-10.352-10.287-9.265-17.897
	c0.714-7.399-7.366-12.088-6.766-19.454c-0.097-6.198,5.679-10.336,6.912-16.161c-2.45-4.673-6.231-8.437-9.135-12.802
	c-13.1-18.986-1.509-14.353-27.664-40.953c-20.538-20.385-24.546-12.371-54.81-19.049c-7.529-1.687-11.553-9.232-18.481-11.974
	c-11.536-2.353-23.397-2.353-34.982-4.365c-6.076-2.145-33.519-15.309-28.459-38.422c11.881-21.309,20.323-17.875,32.581-21.58
	c7.091-1.541,10.238-9.119,16.485-12.153c8.778-4.154,18.903-2.564,27.94-5.695c21.702-39.412,27.748-65.636,61.105-78.969
	c4.024-1.866,8.94-2.969,11.504-6.928c45.406-71.289-10.743-56.428,13.597-88.153c-25.533-18.656-3.832-13.101-132.156-13.159
	c-5.89-0.406-10.027,3.894-13.435,8.015c-1.752,2.791-5.354,1.947-7.999,1.282c-4.3-4.008-6.993-9.362-9.703-14.489
	c-2.531,2.223-5.079,4.43-7.626,6.62c-2.32-3.602-4.413-7.35-6.409-11.131c-6.798,1.541-13.905,1.915-20.817,1.087
	c-6.166-2.839-10.579-8.518-16.923-11.017C383.177,189.693,363.382,195.031,345.777,204.945 M789.235,202.316
	c-8.096-0.73-16.258-1.606-24.354-0.471c-17.065,2.509-30.746-3.64-28.541,7.529c2.482,6.49,10.839,9.638,11.763,16.826
	c-4.362,10.464-28.151,25.846,7.091,66.524c8.642,10.207,31.884,15.885,45.642,30.666c47.67,49.749,29.912,51.357,56.465,53.025
	c9.979,0.503,18.27,6.912,27.778,9.167c8.324,0.341,17.215,0.86,24.176,6.052c12.699,9.056,12.104,41.838,2.612,48.352
	c-12.429,8.827-27.729,11.861-42.219,15.609c-5.257,1.33-8.697,5.874-13.159,8.648c-12.315,7.821-27.551,8.356-40.434,14.846
	c-8.567,5.646-15.203,13.711-22.537,20.817c-9.589,9.362-8.161,23.77-12.348,35.534c-2.19,6.896-9.167,10.076-14.149,14.603
	c1.704,6.977,8.502,11.601,9.946,18.708c0.809,5.682-1.372,4.703-10.839,31.25c-11.292,32.16,29.343,52.582,53.041,56.643
	c19.324,2.645,37.74-6.101,53.641-16.128c7.447-4.932,15.593-8.892,22.537-14.538c5.127-5.874,6.977-14.116,13.013-19.308
	c2.726-2.612,6.685-2.921,10.173-3.862c9.167-1.979,16.988-8.34,26.496-8.956c5.371-0.503,9.346,3.748,13.305,6.685
	c6.279,5.306,15.252,7.529,19.341,15.203c10.238,15.901,6.328,35.534,6.961,53.366c-7.947,114.952-25.515,164.592-52.132,249.028
	c13.483-3.067,26.496-7.821,39.769-11.65c39.701-12.463,41.081-10.932,75.075-37.465
	c105.636-86.338,140.465-153.924,140.723-157.582c2.351-19.215,0.773-60.391,42.365-105.628
	c26.209-27.818,72.945-39.899,86.433-45.188c0.26-1.817,0.519-3.634,0.779-5.452c-4.89-0.121-65.871,2.428-70.126,3.537
	c-36.927,17.815-80.007,54.691-144.504,42.494c-28.816-3.44-56.351-15.187-79.748-32.208c0.503-4.657-1.022-10.19,2.272-14.051
	c2.71-4.202,8.275-1.347,12.023-0.26c78.018,31.495,53.689,19.454,87.91,25.328c9.232,1.704,18.448-1.071,27.713-0.828
	c14.408,0.081,27.242-7.35,39.477-14.116c48.796-26.015,44.966-32.273,93.053-33.214c13.126-1.217,26.22-2.986,39.428-2.986
	c2.202-32.266-3.163-27.572,16.777-40.401c-4.235-9.2-5.549-19.26-7.804-29.011c-1.493-9.054-14.798-8.616-16.469-17.475
	c-1.331-13.207,0.487-26.577-1.785-39.704c-47.351-0.518-46.492-0.453-48.579,1.947c-3.57,3.797-8.908,7.577-8.437,13.402
	c0,30.001-10.352,59.336-26.415,84.421c-24.159,37.925-86.408,59.243-123.573,50.997c-51.335-9.117-102.958-59.774-107.834-104.541
	c-0.535-13.532-0.389-27.08-0.13-40.612c0.049-9.216,3.975-18.043,3.196-27.307c-2.535-8.984-26.648-39.856-1.282-65.81
	c4.154-3.813,4.754-10.044,9.184-13.613c3.553-3.488,8.259-7.35,7.074-12.997c-2.71-12.266-10.644-23.154-11.569-35.907
	c-0.406-12.266,14.57-18.562,13.159-30.893c-3.472,1.525-7.545,2.596-9.752,5.938c-4.576,6.068-6.458,14.619-13.613,18.416
	c-15.129,9.726-20.411-12.218-32.857-14.895c-11.033-0.811-22.115,0.178-33.149-0.535c-3.148-3.959-5.663-9.119-10.709-10.871
	c-7.156-0.876-14.424,0.438-21.547-0.746c-3.115-5.387-3.943-11.666-5.403-17.621C891.997,201.044,804.443,200.841,789.235,202.316
	 M1638.54,238.402c-10.901,13.321-176.005,4.626-399.876,11.455c-12.802-0.535-25.441,1.915-38.243,1.655
	c-23.949,2.515-48.108,0.99-72.155,1.979c-8.632,0.957-17.864,2.304-26.107-1.266c-10.078-11.853-6.413-33.929-16.112-34.658
	c-8.632-0.503-18.091-1.623-25.604,3.586c12.461,16.387,29.526,20.704,24.371,45.237c-4.868,13.37-17.345,21.32-27.34,30.569
	c3.651,5.792,8.226,10.92,13.013,15.804c-1.915,2.272-3.862,4.494-5.841,6.669c10.401,9.086,10.79,24.241,8.324,36.832
	c-3.937,22.524-25.005,26.796-26.415,35.761c-2.961,17.376-12.259,61.265,23.933,93.069c19.248,17.269,64.866,35.794,98.781,13.759
	c21.996-14.322,38.729-21.391,43.939-69.753c0.211-4.868,0.876-10.417-2.71-14.311c-42.685-53.588,18.677-104.8,56.789-58.201
	c15.479,0.325,30.958,0.081,46.437-0.146c0.016-15.009-0.308-30.001,0.195-44.993c5.079-1.558,10.352-2.255,15.609-3.067
	c5.938-0.763,10.482-5.338,16.307-6.571c26.203-5.856,17.005-7.41,42.494-6.977c11.764,0.016,20.347,9.719,31.542,11.926
	c6.295,2.044,13.889,1.963,19.065,6.377c15.843,36.77-12.704,41.477,43.176,38.438c9.288-2.584,19.827-22.753,52.83-16.858
	c11.033,3.391,19.73,12.477,23.998,23.04c2.791,6.085,2.142,12.98,1.963,19.487c-0.795,15.349-18.156,24.598-16.712,40.369
	c-3.13,63.769,102.198,121.445,160.097,28.135c11.766-18.89,2.189-72.229-1.444-76.86c-5.68-5.759-22.39-12.682-25.052-40.418
	c0.016-8.908,4.04-17.134,6.652-25.506c-2.904-1.282-8.242-0.779-7.204-5.371c1.444-4.251,5.403-7.009,8.405-10.19
	c-6.957-17.736-8.667-10.814-19.422-21.401c-10.952-10.352-13.402-29.222-3.862-41.294c4.186-4.981,7.091-10.806,9.33-16.891
	c-7.788-4.462-17.02-3.894-25.62-3.164C1640.649,215.086,1646.182,228.699,1638.54,238.402z"/>
</svg>
